<?xml version="1.0" encoding="UTF-8" standalone="no"?>
<!-- Created with Inkscape (http://www.inkscape.org/) -->

<svg
   version="1.1"
   id="svg1"
   width="408.41443"
   height="277.86465"
   viewBox="0 0 408.41443 277.86465"
   xmlns="http://www.w3.org/2000/svg"
   xmlns:svg="http://www.w3.org/2000/svg">
  <defs
     id="defs1" />
  <g
     id="g1"
     transform="translate(-48.014874,-31.605971)">
    <g
       id="g1261"
       transform="translate(-7.5900449,11.38507)">
      <path
         style="fill:#c8c8c8"
         d="m 85.47159,73.218331 c 5.882017,-0.176489 15.78202,-0.177107 22,-0.0014 6.21798,0.175733 1.40542,0.320132 -10.694576,0.320888 -12.1,7.56e-4 -17.187441,-0.143025 -11.305424,-0.319513 z m 96,0 c 5.88202,-0.176489 15.78202,-0.177107 22,-0.0014 6.21798,0.175733 1.40542,0.320132 -10.69458,0.320888 -12.1,7.56e-4 -17.18744,-0.143025 -11.30542,-0.319513 z"
         id="path1264" />
      <path
         style="fill:#9b9b9a"
         d="m 370.77701,297.30696 c 9.50287,-0.73077 21.27853,-0.78329 20.84883,-0.093 -0.25678,0.4125 -5.9528,0.67138 -12.65784,0.57529 -6.70504,-0.0961 -10.39099,-0.31312 -8.19099,-0.48231 z m -168,-50.02388 c 14.64603,-0.72143 29.27559,-0.75647 28.84825,-0.0691 -0.25646,0.4125 -8.20222,0.6633 -17.65726,0.55732 -9.45504,-0.10597 -14.49099,-0.32567 -11.19099,-0.48822 z m 62.15451,-130.5691 c 0.25494,-0.4125 8.53697,-0.75 18.40451,-0.75 9.86754,0 17.94098,0.3375 17.94098,0.75 0,0.4125 -8.28203,0.75 -18.4045,0.75 -10.12248,0 -18.19593,-0.3375 -17.94099,-0.75 z"
         id="path1263" />
      <path
         style="fill:#e53641"
         d="m 439.53179,159.04314 -12.24522,-3.57916 0.74522,-5 c 1.1511,-7.72323 0.64193,-18.62598 -1.05128,-22.51046 -8.03169,-18.42603 -40.34833,-18.60067 -60.67209,-0.32787 -2.81013,2.52655 -5.2043,4.42377 -5.32037,4.21603 -0.11607,-0.20773 -1.30816,-2.55684 -2.64909,-5.22025 -3.83837,-7.62387 -12.45241,-12.65745 -21.66092,-12.65745 -2.84287,0 -35.30367,-19.499703 -34.17949,-20.532145 0.15316,-0.140655 11.97846,-4.382335 26.27846,-9.425955 14.3,-5.043619 26.51751,-9.703846 27.15002,-10.356058 0.63251,-0.652212 4.13122,-12.43584 7.77492,-26.18584 3.64369,-13.75 6.9791,-25.860548 7.41202,-26.912329 0.64978,-1.578645 3.82431,2.042044 18.19307,20.75 15.9852,20.81254 17.65343,22.660045 20.43796,22.634349 1.66761,-0.01539 14.50369,-0.656212 28.52463,-1.424051 14.02094,-0.767839 25.60739,-1.281297 25.74767,-1.141018 0.14028,0.140279 -6.9439,10.758682 -15.74262,23.596451 -8.79872,12.837769 -15.99767,23.682796 -15.99767,24.100056 0,0.41727 4.52454,12.54016 10.05452,26.93976 5.52998,14.3996 9.91748,26.27874 9.75,26.39809 -0.16748,0.11935 -5.81487,-1.39362 -12.54974,-3.36215 z"
         id="path1262" />
      <path
         style="fill:#1a1a19"
         d="m 184.77701,296.56147 c -7.38228,-3.25862 -8.01562,-6.92397 -4.42052,-25.58307 l 2.31485,-12.01442 h 3.41124 c 3.03221,0 3.35077,0.25001 2.86692,2.25 -0.29937,1.2375 -1.57519,7.58547 -2.83514,14.10659 l -2.29083,11.85659 2.90163,2.49587 c 7.92994,6.82106 13.70836,1.13835 17.28185,-16.99558 l 2.70238,-13.71347 h 3.28381 c 1.8061,0 3.28381,0.20844 3.28381,0.46319 0,3.65344 -6.41222,29.62902 -7.77769,31.50701 -4.201,5.77783 -14.21847,8.49815 -20.72231,5.62729 z m 42.78221,0.1302 c -5.3798,-2.05256 -6.74943,-3.99489 -4.34889,-6.16734 1.88941,-1.7099 2.21775,-1.71706 6.17239,-0.13473 11.46439,4.58714 15.83339,-3.29096 5.49331,-9.90543 -10.38485,-6.64311 -11.53674,-15.39831 -2.63175,-20.00326 5.31551,-2.74876 19.03273,-1.05236 19.03273,2.35376 0,2.16428 -3.85383,4.27791 -5.85107,3.20902 -5.20311,-2.78463 -12.83833,0.102 -11.98533,4.53126 0.1864,0.96788 2.96729,3.29561 6.17977,5.17274 15.73091,9.19196 5.17594,27.52048 -12.06116,20.94398 z m 183.34259,-0.19679 c -5.50164,-1.96105 -6.23058,-2.95741 -4.30912,-5.88994 l 1.61299,-2.46173 3.74711,1.91039 c 11.55118,5.88913 17.15465,-3.36538 5.98211,-9.87986 -16.28797,-9.4972 -3.54122,-27.89167 13.66876,-19.725 l 3.59462,1.70577 -1.60855,2.45496 c -1.07042,1.63367 -2.14452,2.23393 -3.21064,1.79426 -11.65212,-4.80536 -19.10042,3.48697 -8.1268,9.04773 17.11156,8.67108 6.92452,27.55753 -11.35048,21.04342 z m -351.60761,-18.2809 3.689282,-18.75 3.146766,-0.31336 c 3.816974,-0.3801 3.851931,-2.32903 -0.346423,19.31336 -1.920477,9.9 -3.495159,18.1125 -3.499294,18.25 -0.0041,0.1375 -1.508739,0.25 -3.343565,0.25 h -3.336048 z m 20.982814,17.87627 c 0,-0.48055 1.571119,-8.91805 3.491375,-18.75 1.920257,-9.83195 3.495257,-17.98877 3.5,-18.12627 0.0047,-0.1375 1.471125,-0.24382 3.258625,-0.23627 l 3.25,0.0137 5.99093,13.41201 c 3.295016,7.3766 6.159376,13.24356 6.365256,13.03768 0.27862,-0.27863 5.07245,-24.77105 5.13336,-26.22715 0.006,-0.1375 1.50498,-0.25 3.33163,-0.25 h 3.32118 l -3.60726,18.75 -3.60726,18.75 -3.46392,0.27513 -3.46392,0.27513 -5.999996,-13.48454 -6,-13.48454 -2.232952,11.20941 c -3.346366,16.79875 -2.910469,15.70941 -6.2861,15.70941 -1.639522,0 -2.980948,-0.39318 -2.980948,-0.87373 z m 48.362496,-0.87627 c 0.27351,-0.9625 1.96574,-9.5125 3.76053,-19 l 3.26325,-17.25 h 6.86404 c 15.15368,0 20.88776,3.80475 21.55626,14.30328 0.62409,9.80119 -4.02739,18.07514 -12.26521,21.81706 -5.83205,2.64913 -23.92355,2.75034 -23.17887,0.12966 z m 20.87949,-5.96431 c 8.96166,-5.24859 11.19761,-18.93852 3.72438,-22.80308 -4.68547,-2.42295 -11.81081,-1.98395 -12.45539,0.76739 -1.43067,6.10678 -4.51098,22.15323 -4.51098,23.49937 0,2.0511 8.92514,1.06457 13.24199,-1.46368 z m 121.88486,-6.53569 c 3.76836,-19.26765 4.04568,-17.75 -3.24348,-17.75 -5.85516,0 -6.09085,-0.0962 -5.51365,-2.25 0.33163,-1.2375 0.60912,-2.5875 0.61663,-3 0.008,-0.4125 7.2618,-0.75 16.12064,-0.75 14.27663,0 16.03801,0.17975 15.5,1.58179 -0.33384,0.86998 -0.60699,2.21998 -0.60699,3 0,1.07883 -1.55549,1.41821 -6.5,1.41821 -3.575,0 -6.50348,0.1125 -6.50773,0.25 -0.004,0.1375 -1.35425,7.18665 -3,15.66477 -1.64575,8.47812 -2.99227,15.56562 -2.99227,15.75 0,0.18438 -1.49853,0.33523 -3.33007,0.33523 h -3.33008 z m 29.87315,12.92325 c 0,-1.52006 5.82389,-32.27528 6.61316,-34.92325 0.67899,-2.27796 13.69631,-2.48319 18.92532,-0.29837 6.70837,2.80294 6.93778,11.40076 0.47009,17.61792 l -3.7134,3.56956 2.82498,7.68044 2.82498,7.68045 h -3.50395 c -1.92717,0 -3.69936,-0.5625 -3.93819,-1.25 -0.23884,-0.6875 -1.39129,-3.86218 -2.56099,-7.05486 l -2.12674,-5.80485 -3.63146,0.30485 c -3.45138,0.28975 -3.67153,0.528 -4.43981,4.80486 -1.63584,9.10643 -1.57952,9 -4.76304,9 -1.81006,0 -2.98095,-0.52113 -2.98095,-1.32675 z m 21.54546,-21.12779 c 4.75464,-4.75465 2.24236,-9.54546 -5.00559,-9.54546 h -4.31728 l -0.67957,3.75 c -0.37376,2.0625 -0.92263,4.7625 -1.2197,6 -0.83045,3.45935 7.71398,3.30362 11.22214,-0.20454 z m 24.14175,4.70454 c 1.86016,-9.7625 3.57738,-18.3125 3.81606,-19 0.45814,-1.31964 6.50289,-1.78548 6.48811,-0.5 -0.005,0.4125 -1.57974,8.79432 -3.5,18.62627 -1.92026,9.83195 -3.49138,18.04445 -3.49138,18.25 0,0.20555 -1.50635,0.37373 -3.34744,0.37373 h -3.34744 z m 21.31279,16.42385 c 0,-1.08793 4.77035,-26.14545 6.55347,-34.42385 l 0.48464,-2.25 h 11.04737 11.04737 l -0.31642,2.75 -0.31643,2.75 -8.12508,0.28843 -8.12509,0.28842 -0.98103,4.96158 -0.98102,4.96157 h 6.35611 c 6.54285,0 7.2392,0.53515 5.74912,4.41821 -0.46405,1.20931 -2.08122,1.58179 -6.86748,1.58179 h -6.26051 l -0.98486,4.98098 c -1.2313,6.22736 -1.50798,6.01902 7.9935,6.01902 6.82969,0 7.85542,0.22125 7.33333,1.58179 -0.33384,0.86998 -0.60699,1.99498 -0.60699,2.5 0,0.50502 -5.175,0.91821 -11.5,0.91821 -8.88553,0 -11.5,-0.30149 -11.5,-1.32615 z m -209.78303,-46.7773 c -19.31277,-3.25205 -27.93933,-21.87929 -19.02576,-41.08209 7.7534,-16.70337 35.66534,-28.81446 66.40756,-28.81446 4.92376,0 5.17773,-0.1325 5.75132,-3.00043 2.69921,-13.49604 -18.16086,-15.31043 -41.17022,-3.58096 l -4.67987,2.38565 -3.18825,-12.62406 c -3.73118,-14.77378 -4.1169,-13.80591 7.4279,-18.63866 34.71944,-14.53384 67.441,-10.36919 76.34479,9.71682 4.64306,10.47425 1.49048,30.48977 -14.17428,89.99164 l -0.98724,3.75 h -16.46146 c -18.38231,0 -17.4227,0.48653 -14.97228,-7.59107 0.81905,-2.69991 1.49405,-5.07379 1.5,-5.27529 0.006,-0.2015 -1.7331,1.20917 -3.86457,3.13482 -10.5493,9.53066 -25.25794,13.92654 -38.90764,11.62809 z m 30.40335,-28.38237 c 7.60575,-3.17789 14.61538,-10.81457 16.88485,-18.3953 l 0.71284,-2.38112 -8.359,0.46488 c -13.95198,0.77593 -23.87973,6.65674 -23.84369,14.12409 0.0333,6.89392 6.42912,9.60355 14.605,6.18745 z m -99.270727,4.73582 c 0.266401,-0.9625 3.69276,-15.05651 7.614131,-31.32003 L 104.3705,164.32391 90.211596,119.89395 C 82.424199,95.457466 75.851607,75.126482 75.605836,74.713982 c -0.245771,-0.4125 9.171504,-0.75 20.927277,-0.75 h 21.374137 l 4.66979,20.75 c 4.01462,17.838778 7.69997,36.059728 7.69997,38.069828 0,0.32939 4.39339,-5.90782 9.76308,-13.86047 5.3697,-7.95265 14.63339,-21.321858 20.58598,-29.709358 l 10.82289,-15.25 h 21.03647 c 16.68136,0 20.83507,0.258783 20.06363,1.25 -0.53506,0.6875 -16.40748,20.6 -35.27205,44.249998 -18.86456,23.65 -34.66038,43.4702 -35.10181,44.04488 -0.44143,0.57468 -3.76881,13.39968 -7.39418,28.5 -3.62537,15.10032 -7.03922,29.14262 -7.58634,31.20512 l -0.99475,3.75 h -18.52885 c -17.164369,0 -18.493173,-0.12887 -18.044477,-1.75 z m 149.650407,0.7914 c 0,-0.55204 5.61758,-24.29969 12.48351,-52.77256 6.86593,-28.47286 12.72451,-52.78134 13.01906,-54.01884 l 0.53554,-2.25 h 17.48095 c 9.61452,0 17.4756,0.3375 17.46907,0.75 -0.0133,0.84058 -2.28016,9.48349 -3.4372,13.10509 -0.60608,1.89707 0.57992,1.25448 6.09833,-3.30416 22.21881,-18.35451 51.05221,-17.23855 56.81809,2.19907 0.85519,2.88297 1.63738,2.83188 4.57874,-0.29905 14.16109,-15.0738 44.33857,-19.95412 56.63384,-9.15887 11.22475,9.85534 9.74627,23.97287 -10.78237,102.95792 l -0.97464,3.75 h -18.30272 -18.30272 l 7.83688,-32.25 c 10.99764,-45.25704 11.0446,-46.75 1.47056,-46.75 -15.96141,0 -23.14133,11.32695 -32.96174,52 l -6.39835,26.5 -18.13241,0.27256 c -14.1547,0.21277 -18.13176,-0.007 -18.12942,-1 0.002,-0.69991 3.6003,-16.12256 7.997,-34.27256 10.14618,-41.88432 10.19188,-43.51985 1.21482,-43.47804 -16.39987,0.0764 -23.14158,10.47831 -33.17502,51.1864 l -6.72665,27.29164 -18.15657,0.27256 c -11.66358,0.17509 -18.15658,-0.0864 -18.15658,-0.73116 z"
         id="path1261" />
    </g>
  </g>
</svg>
